<svg height="1941" version="1.1" width="1983" xmlns="http://www.w3.org/2000/svg"><g id="osm-group-2793104"><title>Relation 2793104 from OpenStreetMap</title><desc>Relation 2793104 from OpenStreetMap, consisting of: 93 ways, 2328 nodes</desc><path d="M680.5,97.651 L684.257,98.289 L686.902,98.767 L689.027,99.061 L690.559,99.504 L692.88,100.235 L695.792,101.323 L714.038,107.381 L717.22,108.702 L731.518,112.953 L730.131,72.079 L733.069,72.939 L732.197,49.985 L735.197,52.472 L739.683,55.149 L744.024,57.216 L748.343,58.951 L753.847,60.925 L757.255,61.992 L759.404,62.669 L762.116,64.088 L766.823,66.715 L769.138,68.284 L771.108,69.696 L772.8,71.869 L775.682,70.417 L778.306,70.184 L780.485,69.997 L783.236,69.561 L786.434,68.975 L790.696,68.143 L794.091,67.56 L797.139,67.025 L799.84,66.537 L802.691,65.924 L805.369,65.233 L807.799,64.642 L810.947,63.93 L813.028,63.666 L815.432,63.252 L818.33,62.919 L820.932,62.557 L822.448,63.204 L822.424,64.347 L822.725,67.599 L823.2,71.436 L823.822,75.043 L824.37,78.473 L825.14,82.03 L825.762,84.951 L826.433,87.415 L827.401,90.489 L828.443,93.943 L829.66,98.362 L830.39,100.572 L831.549,103.554 L831.823,104.608 L834.522,105.86 L835.691,105.35 L837.123,103.142 L856.429,105.125 L856.777,104.166 L870.357,111.693 L877.492,115.81 L867.833,132.183 L863.655,137.551 L865.129,139.118 L865.821,141.826 L866.709,144.772 L869.029,147.957 L872.341,150.363 L874.247,152.405 L886.223,160.885 L895.645,166.986 L896.896,165.782 L898.833,164.958 L900.8,165.357 L902.857,166.456 L904.104,167.472 L904.398,167.731 L906.011,169.32 L908.26,171.772 L909.263,172.829 L913.475,173.058 L915.659,172.194 L920.778,167.382 L925.587,163.189 L926.26,163.856 L931.602,159.82 L933.85,158.567 L935.023,158.23 L938.36,157.857 L938.46,158.669 L938.884,164.535 L941.222,175.836 L943.031,180.463 L945.259,185.879 L948.05,191.438 L948.592,191.77 L949.496,193.89 L961.822,196.526 L965.829,200.948 L970.888,204.891 L976.232,206.554 L979.383,207.995 L983.978,210.146 L985.941,196.383 L987.461,196.293 L987.322,191.077 L987.504,189.096 L987.819,187.211 L988.193,187.372 L1010.057,196.871 L1014.192,188.562 L1020.17,191.406 L1029.458,195.823 L1030.064,196.087 L1032.343,191.148 L1034.689,186.066 L1039.287,188.081 L1044.116,190.796 L1054.623,196.705 L1056.992,194.361 L1059.851,190.112 L1070.105,196.915 L1069.263,198.007 L1078.919,204.853 L1082.521,208.519 L1091.858,196.516 L1100.648,182.145 L1101.875,183.147 L1110.388,169.409 L1131.41,174.94 L1131.766,168.568 L1154.409,170.128 L1170.305,168.322 L1189.352,162.915 L1208.849,151.873 L1190.302,133.028 L1208.232,117.548 L1200.609,113.548 L1202.132,101.149 L1197.903,100.506 L1198.161,98.278 L1199.355,87.96 L1200.838,76.998 L1201.417,75.725 L1196.821,58.942 L1196.314,57.095 L1200.493,54.538 L1201.525,53.906 L1234.336,44.303 L1234.287,43.196 L1241.217,41.899 L1245.421,36.4 L1249.941,32.791 L1253.814,29.791 L1255.185,28.73 L1257.258,30.502 L1262.961,35.373 L1264.707,29.148 L1266.374,20.961 L1267.503,15.199 L1267.429,14.886 L1265.386,6.186 L1271.412,6.877 L1276.096,7.414 L1274.97,0.0 L1290.158,1.248 L1292.806,2.057 L1295.702,3.17 L1298.053,4.31 L1306.123,8.54 L1306.369,7.959 L1318.746,14.4 L1323.952,15.755 L1330.897,18.185 L1334.068,19.259 L1337.73,20.53 L1343.455,22.474 L1346.657,23.389 L1351.559,24.081 L1354.381,24.105 L1355.862,24.011 L1371.236,28.886 L1360.819,71.686 L1357.628,91.298 L1366.219,96.366 L1364.99,102.235 L1372.143,104.839 L1370.567,110.81 L1371.928,111.012 L1370.032,118.609 L1367.669,128.29 L1379.105,132.665 L1390.836,136.837 L1394.276,137.823 L1393.316,142.346 L1390.806,152.814 L1393.181,153.47 L1389.071,170.418 L1391.124,170.67 L1388.168,181.164 L1396.256,179.525 L1394.088,188.088 L1398.991,191.585 L1415.9,203.599 L1418.599,207.026 L1422.878,214.092 L1428.417,222.836 L1432.352,218.568 L1434.876,220.652 L1437.48,223.026 L1440.325,219.89 L1445.58,213.703 L1449.879,213.529 L1469.022,212.934 L1468.949,219.255 L1463.87,227.956 L1456.911,238.747 L1449.931,246.998 L1441.662,256.061 L1436.639,261.341 L1434.287,263.271 L1432.134,264.489 L1427.161,266.874 L1424.216,268.498 L1421.667,269.995 L1419.688,271.644 L1419.891,271.964 L1421.368,274.339 L1424.532,278.888 L1427.796,282.115 L1429.006,285.013 L1429.055,287.045 L1427.948,290.494 L1436.172,299.094 L1435.022,300.507 L1441.831,307.681 L1433.448,315.967 L1431.152,315.591 L1429.354,323.098 L1437.719,324.925 L1435.771,338.07 L1440.779,339.41 L1444.399,340.968 L1452.132,344.289 L1470.714,351.11 L1476.694,354.163 L1479.621,355.866 L1482.545,357.9 L1482.036,358.698 L1481.692,359.239 L1479.898,358.003 L1477.534,356.991 L1474.348,356.581 L1472.098,356.663 L1469.519,357.352 L1466.912,358.6 L1464.849,359.852 L1463.328,361.285 L1461.671,364.016 L1460.255,367.612 L1459.02,372.886 L1457.797,379.584 L1456.608,385.367 L1455.554,389.83 L1454.316,392.818 L1452.383,395.976 L1451.492,398.891 L1451.194,403.515 L1451.844,408.067 L1453.329,418.469 L1445.167,419.106 L1445.941,421.931 L1447.141,427.985 L1447.758,432.258 L1448.327,432.186 L1449.055,438.873 L1449.872,446.855 L1459.024,446.174 L1459.512,451.208 L1462.926,450.899 L1464.684,450.578 L1467.517,464.622 L1461.923,465.605 L1462.952,473.161 L1464.242,484.28 L1478.814,481.869 L1479.3,486.972 L1481.575,486.671 L1483.398,496.214 L1484.366,501.728 L1495.673,498.957 L1499.163,511.096 L1502.502,522.982 L1506.756,522.99 L1510.01,521.393 L1513.341,531.364 L1516.557,530.024 L1528.289,524.869 L1533.658,522.874 L1533.755,523.331 L1536.221,532.919 L1537.543,538.827 L1540.66,554.03 L1540.699,554.146 L1540.84,554.563 L1542.575,552.919 L1543.431,552.126 L1545.093,551.43 L1547.703,551.067 L1547.953,553.346 L1551.702,567.279 L1543.823,569.431 L1543.952,569.998 L1545.481,575.386 L1547.411,581.294 L1545.652,581.79 L1545.548,582.228 L1545.613,582.465 L1549.047,594.909 L1550.924,594.355 L1556.408,592.742 L1556.439,593.08 L1559.795,604.556 L1556.41,605.569 L1556.481,605.974 L1560.19,619.14 L1547.364,623.04 L1539.052,625.675 L1534.442,627.127 L1534.966,632.749 L1537.357,651.146 L1538.743,663.801 L1538.551,669.167 L1538.456,673.865 L1539.657,681.215 L1540.345,687.875 L1541.393,695.833 L1547.785,694.056 L1549.672,694.736 L1549.674,695.863 L1549.69,706.631 L1549.626,716.312 L1543.483,719.112 L1543.411,724.372 L1545.387,731.111 L1548.935,734.045 L1544.157,735.756 L1544.962,738.325 L1538.808,737.848 L1533.207,740.878 L1533.179,741.869 L1514.733,748.617 L1513.716,749.452 L1515.37,754.588 L1517.901,762.619 L1518.077,763.175 L1516.05,764.016 L1512.296,765.77 L1507.627,768.036 L1506.576,775.481 L1508.849,775.226 L1510.075,779.569 L1510.786,781.244 L1497.927,783.639 L1491.039,783.166 L1490.867,783.978 L1487.334,785.149 L1487.255,786.317 L1487.14,788.022 L1488.409,793.381 L1489.08,795.414 L1493.898,794.166 L1497.457,793.884 L1500.733,803.206 L1500.661,804.299 L1502.321,807.297 L1503.088,808.339 L1507.166,808.157 L1511.845,813.033 L1513.819,811.051 L1514.339,811.8 L1515.74,813.876 L1521.371,820.184 L1532.357,809.385 L1535.182,806.687 L1536.082,805.826 L1539.588,803.259 L1542.65,801.301 L1545.959,799.546 L1550.011,798.069 L1555.299,796.516 L1559.845,795.269 L1564.292,793.462 L1567.429,792.139 L1573.159,789.392 L1575.754,788.704 L1578.127,788.525 L1580.525,788.702 L1583.046,789.209 L1585.57,790.427 L1588.736,792.56 L1591.284,794.109 L1592.719,794.871 L1594.796,795.505 L1597.243,795.555 L1599.047,794.715 L1600.873,792.834 L1601.243,792.249 L1602.258,793.291 L1600.653,795.044 L1599.246,796.239 L1599.0,797.001 L1599.266,802.187 L1613.993,808.836 L1609.597,811.329 L1607.652,817.453 L1604.495,822.663 L1608.603,826.549 L1611.571,829.191 L1614.193,830.891 L1617.484,833.102 L1619.958,834.802 L1621.317,835.056 L1623.615,834.598 L1624.504,834.166 L1623.884,831.955 L1623.809,831.092 L1624.203,830.278 L1624.474,829.54 L1624.176,828.423 L1622.291,823.265 L1631.854,821.559 L1633.094,824.811 L1638.458,823.609 L1638.504,822.217 L1639.109,822.297 L1642.311,823.206 L1643.349,823.053 L1649.946,821.17 L1655.7,816.9 L1664.367,809.933 L1665.923,808.892 L1665.55,806.503 L1668.119,805.258 L1669.7,804.749 L1671.702,804.469 L1674.791,804.111 L1676.792,803.755 L1678.028,803.349 L1677.712,808.024 L1677.961,810.107 L1678.383,811.556 L1679.324,813.003 L1681.95,817.754 L1683.509,819.787 L1685.637,821.717 L1686.403,821.972 L1687.425,829.238 L1688.05,835.743 L1687.853,836.683 L1686.965,838.462 L1683.982,844.816 L1681.418,850.535 L1679.372,854.803 L1678.31,857.421 L1680.906,856.811 L1682.685,856.275 L1683.921,855.691 L1685.748,854.369 L1689.154,851.116 L1691.55,849.082 L1693.648,846.845 L1694.24,845.676 L1694.832,844.991 L1695.426,844.761 L1696.019,844.71 L1696.636,844.837 L1697.403,845.32 L1701.486,849.968 L1704.23,850.755 L1706.53,851.746 L1710.73,852.107 L1714.833,852.012 L1718.071,851.738 L1721.505,851.414 L1724.101,850.884 L1727.215,850.686 L1730.428,850.539 L1734.752,850.798 L1739.942,851.339 L1745.131,852.008 L1748.713,852.52 L1750.444,852.472 L1757.832,852.23 L1758.204,850.936 L1763.742,849.169 L1764.237,847.646 L1767.425,846.993 L1769.626,846.615 L1770.295,844.382 L1773.323,845.307 L1774.57,847.666 L1780.038,846.713 L1785.834,845.572 L1785.964,842.276 L1787.722,839.869 L1797.985,831.738 L1807.897,842.431 L1801.803,853.091 L1796.197,863.109 L1787.738,876.868 L1806.023,887.064 L1808.259,885.591 L1810.551,885.264 L1812.624,884.987 L1812.945,885.009 L1814.398,884.612 L1821.512,874.653 L1837.098,864.479 L1838.171,865.483 L1838.151,868.482 L1838.785,870.101 L1858.284,890.526 L1863.931,899.51 L1860.058,902.524 L1851.94,908.427 L1843.32,911.084 L1840.611,911.874 L1838.458,913.981 L1834.794,918.11 L1823.562,936.167 L1828.353,944.947 L1830.42,946.46 L1832.194,947.361 L1836.252,950.563 L1840.042,952.899 L1842.427,954.972 L1845.139,955.98 L1847.034,957.059 L1848.486,958.212 L1849.86,959.77 L1851.41,960.95 L1853.329,962.309 L1854.361,963.332 L1858.643,961.806 L1861.817,959.764 L1864.273,957.871 L1862.2,961.567 L1860.226,964.762 L1859.629,966.859 L1859.302,969.34 L1859.275,970.056 L1866.028,975.147 L1866.773,974.312 L1869.821,972.703 L1871.524,971.715 L1872.944,970.891 L1878.201,967.49 L1883.481,964.19 L1887.004,961.566 L1890.2,959.806 L1892.506,958.447 L1894.535,957.875 L1899.919,958.007 L1904.169,957.728 L1906.939,957.261 L1909.834,956.313 L1919.743,951.668 L1921.768,969.055 L1922.882,980.645 L1934.92,979.446 L1947.65,978.203 L1954.498,977.282 L1960.583,976.228 L1962.905,976.174 L1964.928,976.423 L1966.362,976.159 L1968.025,975.186 L1970.332,973.967 L1978.711,973.189 L1980.205,976.944 L1982.122,981.812 L1981.337,984.01 L1980.75,986.361 L1980.224,990.155 L1980.177,992.715 L1980.145,996.667 L1973.639,1006.84 L1971.61,1010.29 L1971.157,1011.274 L1970.775,1012.613 L1970.766,1013.804 L1970.926,1015.225 L1971.3,1017.915 L1971.647,1020.704 L1971.849,1023.114 L1958.349,1025.16 L1952.29,1026.114 L1947.501,1025.813 L1942.618,1028.071 L1925.366,1029.954 L1926.62,1033.513 L1928.512,1037.586 L1928.377,1039.075 L1927.792,1041.073 L1925.862,1038.821 L1921.46,1036.872 L1917.856,1034.17 L1915.901,1031.965 L1911.724,1029.765 L1907.501,1029.849 L1903.693,1027.827 L1902.39,1026.522 L1902.166,1022.68 L1901.531,1021.482 L1902.182,1019.935 L1897.2,1018.583 L1895.445,1018.801 L1892.883,1017.643 L1893.717,1014.418 L1885.647,1008.725 L1883.959,1010.189 L1882.503,1009.901 L1871.476,1016.244 L1866.895,1018.175 L1859.881,1022.378 L1850.73,1028.179 L1844.543,1032.405 L1849.653,1040.707 L1844.582,1047.053 L1842.922,1047.823 L1839.566,1049.881 L1839.297,1050.045 L1835.552,1051.835 L1831.859,1053.422 L1829.944,1054.951 L1828.648,1056.309 L1825.369,1061.225 L1822.877,1063.689 L1820.466,1065.567 L1818.331,1066.892 L1814.565,1068.376 L1810.839,1069.466 L1805.188,1070.389 L1802.3,1070.646 L1800.401,1071.098 L1797.368,1071.764 L1795.027,1072.448 L1793.477,1073.201 L1791.245,1074.875 L1789.729,1076.516 L1788.931,1078.278 L1787.326,1083.424 L1786.433,1085.491 L1785.846,1086.107 L1770.146,1087.945 L1762.35,1086.808 L1759.826,1087.832 L1757.411,1089.095 L1755.876,1089.777 L1754.483,1090.37 L1753.594,1090.484 L1752.966,1090.426 L1751.471,1090.074 L1748.73,1089.323 L1745.722,1088.375 L1741.137,1086.811 L1739.162,1085.885 L1735.906,1086.822 L1734.335,1087.456 L1733.074,1088.673 L1728.826,1092.893 L1725.364,1090.736 L1719.204,1086.555 L1709.555,1080.011 L1709.067,1081.679 L1708.416,1082.403 L1707.595,1082.475 L1706.525,1082.438 L1706.293,1079.037 L1706.479,1075.403 L1700.693,1072.721 L1700.28,1073.462 L1699.644,1074.077 L1698.807,1074.442 L1697.447,1074.38 L1696.813,1075.225 L1694.049,1082.949 L1690.827,1091.669 L1691.251,1092.148 L1692.626,1093.657 L1693.29,1094.859 L1688.77,1098.473 L1686.665,1098.012 L1683.595,1097.511 L1681.023,1097.336 L1678.338,1098.126 L1674.799,1100.018 L1675.482,1101.662 L1677.341,1104.664 L1678.726,1107.138 L1680.189,1109.941 L1682.461,1114.794 L1672.332,1115.82 L1673.898,1119.602 L1673.382,1120.086 L1675.298,1122.414 L1681.172,1125.419 L1683.949,1127.142 L1686.202,1129.118 L1687.484,1131.654 L1683.831,1132.229 L1682.853,1134.884 L1681.676,1137.513 L1677.825,1144.631 L1675.022,1147.765 L1672.975,1149.924 L1672.113,1151.118 L1671.448,1152.261 L1671.105,1153.403 L1670.861,1154.773 L1670.914,1155.99 L1671.213,1156.802 L1672.057,1158.042 L1673.918,1160.853 L1675.68,1163.335 L1676.847,1164.778 L1678.433,1166.095 L1680.117,1167.131 L1682.022,1167.685 L1683.555,1167.783 L1685.137,1167.576 L1687.364,1166.749 L1689.471,1172.147 L1689.561,1173.437 L1687.812,1174.428 L1687.675,1177.045 L1689.03,1180.042 L1691.25,1178.846 L1692.399,1179.615 L1689.216,1182.396 L1690.804,1184.517 L1692.328,1184.807 L1691.491,1186.281 L1690.974,1187.347 L1690.482,1188.514 L1690.141,1190.037 L1690.071,1192.092 L1690.009,1196.783 L1689.649,1200.613 L1689.383,1203.1 L1689.266,1205.915 L1689.52,1208.374 L1689.772,1210.226 L1690.394,1212.127 L1691.638,1214.837 L1692.609,1217.727 L1693.384,1220.768 L1694.585,1223.154 L1690.768,1226.495 L1686.827,1225.959 L1681.45,1224.803 L1680.572,1224.85 L1680.801,1229.759 L1673.801,1230.411 L1670.805,1230.896 L1668.033,1224.36 L1666.465,1219.963 L1663.548,1220.234 L1663.55,1219.346 L1660.045,1219.753 L1659.496,1219.817 L1659.072,1221.264 L1655.955,1229.014 L1654.503,1228.438 L1648.137,1241.625 L1640.452,1257.706 L1637.802,1256.587 L1637.501,1255.007 L1636.572,1255.237 L1633.465,1255.782 L1630.106,1255.266 L1626.797,1254.825 L1625.733,1263.33 L1625.552,1265.92 L1625.518,1269.043 L1625.784,1271.253 L1626.541,1274.073 L1627.273,1275.666 L1627.989,1277.226 L1628.959,1283.603 L1625.992,1285.127 L1617.414,1289.533 L1613.163,1291.306 L1615.061,1295.875 L1617.989,1303.667 L1619.868,1309.302 L1618.263,1310.551 L1616.022,1312.914 L1599.363,1328.563 L1594.09,1335.751 L1588.971,1342.731 L1587.813,1343.421 L1584.927,1344.677 L1581.175,1345.91 L1576.113,1346.97 L1576.191,1347.834 L1576.989,1349.203 L1578.475,1350.011 L1580.058,1350.412 L1581.176,1351.476 L1582.667,1353.25 L1593.39,1368.969 L1590.688,1367.3 L1588.832,1366.85 L1587.003,1366.781 L1584.928,1367.092 L1580.733,1368.277 L1579.179,1369.07 L1579.032,1369.426 L1578.64,1369.987 L1576.617,1371.037 L1573.091,1372.803 L1569.81,1374.161 L1567.243,1374.807 L1566.729,1376.079 L1566.018,1377.376 L1564.813,1378.626 L1561.957,1380.849 L1558.395,1391.257 L1556.044,1385.165 L1557.073,1382.976 L1551.739,1378.649 L1549.863,1379.291 L1544.607,1381.038 L1537.597,1383.02 L1530.615,1385.613 L1531.094,1393.109 L1532.155,1403.323 L1527.705,1403.161 L1523.218,1405.541 L1519.829,1404.866 L1514.676,1402.166 L1510.735,1399.512 L1506.442,1396.047 L1507.928,1391.135 L1501.807,1389.069 L1497.553,1388.119 L1491.219,1386.086 L1488.963,1384.369 L1481.04,1370.442 L1478.293,1363.569 L1477.583,1361.661 L1476.494,1358.942 L1475.539,1359.772 L1473.9,1360.959 L1471.639,1361.715 L1470.751,1362.226 L1469.991,1363.448 L1468.758,1363.885 L1467.993,1363.963 L1466.959,1364.906 L1465.41,1366.232 L1464.965,1366.361 L1464.177,1366.871 L1462.262,1368.14 L1461.027,1370.349 L1460.038,1371.898 L1459.718,1385.315 L1457.576,1391.95 L1452.952,1401.385 L1449.213,1410.206 L1443.549,1424.366 L1439.79,1433.925 L1438.064,1434.388 L1435.941,1434.676 L1432.712,1436.185 L1434.231,1439.77 L1432.588,1440.963 L1429.407,1443.465 L1426.294,1446.549 L1423.754,1449.414 L1420.115,1446.768 L1415.131,1442.929 L1411.017,1440.102 L1406.777,1436.743 L1403.01,1434.168 L1399.937,1432.175 L1396.446,1430.59 L1391.899,1428.601 L1391.971,1434.795 L1388.507,1443.471 L1387.149,1443.059 L1382.974,1457.384 L1377.324,1455.362 L1376.106,1460.24 L1375.942,1460.8 L1369.899,1462.677 L1366.15,1463.884 L1364.35,1464.347 L1362.992,1464.582 L1360.275,1464.491 L1357.212,1464.351 L1339.278,1461.883 L1339.928,1465.69 L1340.414,1469.063 L1340.649,1471.906 L1340.87,1475.592 L1340.405,1475.496 L1339.78,1475.549 L1339.721,1483.708 L1340.029,1487.6 L1340.482,1492.306 L1341.088,1495.487 L1341.585,1497.409 L1342.656,1501.818 L1342.105,1501.769 L1334.665,1500.899 L1329.941,1500.856 L1322.201,1500.917 L1317.872,1501.463 L1312.924,1501.802 L1312.605,1494.069 L1311.871,1492.992 L1310.596,1493.462 L1309.191,1492.742 L1308.495,1492.247 L1308.125,1492.246 L1307.103,1491.637 L1304.161,1492.122 L1302.181,1491.667 L1300.481,1491.707 L1300.024,1491.414 L1299.518,1491.571 L1298.782,1491.747 L1298.391,1491.724 L1297.52,1491.383 L1296.649,1491.359 L1296.409,1491.224 L1296.282,1490.237 L1295.455,1489.808 L1293.049,1490.339 L1291.841,1490.241 L1289.738,1490.434 L1287.858,1490.575 L1284.17,1491.42 L1282.761,1491.26 L1280.784,1491.147 L1278.359,1491.158 L1276.232,1491.502 L1274.028,1492.102 L1271.056,1493.052 L1267.586,1494.432 L1265.107,1495.843 L1264.869,1495.945 L1264.209,1496.229 L1263.769,1496.421 L1262.95,1496.747 L1259.814,1499.745 L1258.475,1500.731 L1256.915,1501.516 L1255.922,1502.631 L1255.103,1503.366 L1253.913,1504.024 L1252.947,1504.784 L1252.174,1506.663 L1252.933,1508.699 L1253.768,1510.559 L1253.517,1511.551 L1250.663,1514.618 L1249.913,1516.981 L1249.311,1519.344 L1249.43,1520.591 L1247.965,1522.621 L1247.491,1523.866 L1246.743,1525.135 L1245.353,1527.037 L1244.902,1528.562 L1244.304,1530.061 L1243.588,1531.721 L1243.332,1535.594 L1243.393,1535.987 L1243.73,1537.28 L1244.083,1539.033 L1244.433,1540.507 L1244.974,1542.28 L1245.413,1543.691 L1245.563,1544.824 L1245.566,1545.689 L1245.447,1546.733 L1244.862,1548.59 L1244.227,1552.339 L1243.241,1558.282 L1241.715,1558.009 L1240.34,1557.602 L1238.408,1556.349 L1237.198,1555.135 L1236.301,1556.306 L1239.221,1558.83 L1241.866,1560.948 L1244.902,1563.325 L1248.246,1565.797 L1251.592,1567.9 L1256.475,1571.718 L1258.793,1573.316 L1260.865,1574.773 L1262.159,1576.01 L1263.941,1578.511 L1265.818,1581.348 L1270.143,1585.356 L1272.358,1587.542 L1273.8,1589.459 L1274.796,1591.255 L1275.983,1593.335 L1277.062,1595.3 L1278.145,1597.913 L1279.332,1600.242 L1281.674,1603.692 L1282.86,1604.978 L1285.334,1607.221 L1286.489,1608.483 L1287.866,1610.395 L1288.553,1611.387 L1288.973,1613.43 L1289.134,1615.52 L1289.047,1618.519 L1289.292,1620.398 L1289.565,1621.7 L1290.41,1622.935 L1291.779,1624.623 L1293.616,1626.368 L1295.33,1627.714 L1296.522,1628.583 L1297.51,1629.819 L1299.136,1631.995 L1300.69,1633.583 L1305.431,1637.333 L1306.949,1638.761 L1308.283,1640.371 L1309.535,1642.715 L1311.206,1645.628 L1312.837,1648.408 L1314.931,1652.029 L1319.954,1661.412 L1321.693,1664.716 L1323.288,1667.745 L1324.377,1669.618 L1327.732,1674.359 L1328.634,1675.732 L1329.007,1677.019 L1329.322,1679.511 L1330.02,1683.878 L1330.654,1686.971 L1331.681,1689.159 L1332.204,1689.936 L1333.862,1691.659 L1338.034,1694.49 L1339.476,1695.978 L1340.559,1697.991 L1341.594,1699.874 L1342.672,1701.098 L1344.523,1703.004 L1347.132,1706.134 L1348.424,1707.685 L1349.735,1709.423 L1351.477,1710.767 L1353.471,1711.023 L1354.771,1725.42 L1362.851,1722.182 L1364.643,1727.212 L1367.405,1734.71 L1368.669,1738.175 L1368.86,1738.888 L1369.656,1741.863 L1370.165,1743.174 L1371.709,1744.512 L1373.498,1745.043 L1374.838,1744.773 L1376.37,1743.874 L1377.812,1742.592 L1379.372,1741.514 L1379.683,1741.016 L1380.034,1740.01 L1380.405,1738.95 L1381.366,1738.112 L1383.17,1737.169 L1385.706,1736.576 L1387.079,1736.004 L1388.249,1735.259 L1388.688,1734.979 L1389.735,1733.686 L1391.599,1730.534 L1392.683,1730.614 L1394.479,1730.916 L1395.501,1730.564 L1397.46,1729.344 L1399.618,1728.081 L1400.403,1727.416 L1401.102,1726.24 L1401.259,1725.863 L1401.605,1725.852 L1404.158,1727.339 L1407.014,1727.697 L1408.085,1727.117 L1409.746,1726.22 L1411.978,1724.984 L1413.963,1723.741 L1417.971,1723.519 L1422.344,1723.459 L1426.579,1723.041 L1429.575,1722.792 L1431.641,1724.017 L1435.214,1724.292 L1439.247,1727.207 L1440.799,1729.831 L1442.325,1731.87 L1443.433,1734.24 L1445.151,1742.265 L1447.804,1752.048 L1447.234,1753.166 L1446.295,1754.643 L1444.786,1757.646 L1443.056,1760.828 L1439.965,1766.069 L1438.53,1768.844 L1436.133,1772.356 L1433.983,1775.179 L1432.746,1777.648 L1430.67,1781.644 L1431.211,1782.817 L1430.837,1785.845 L1430.46,1792.06 L1430.235,1794.02 L1429.715,1796.159 L1428.947,1798.781 L1427.956,1802.142 L1427.36,1805.579 L1427.259,1807.056 L1427.435,1809.716 L1427.477,1810.341 L1428.56,1823.708 L1428.916,1829.326 L1429.464,1832.033 L1430.261,1836.764 L1431.056,1839.495 L1432.372,1844.782 L1433.12,1848.399 L1433.618,1850.903 L1434.143,1854.953 L1435.084,1863.855 L1435.373,1866.774 L1435.676,1872.933 L1435.832,1884.524 L1436.668,1885.656 L1452.06,1881.264 L1458.531,1879.479 L1461.529,1878.811 L1464.27,1878.104 L1466.171,1877.772 L1467.736,1877.748 L1468.867,1883.382 L1467.299,1883.771 L1475.131,1911.36 L1475.382,1912.617 L1436.107,1919.55 L1414.4,1923.465 L1385.745,1928.392 L1365.598,1932.037 L1345.541,1935.48 L1340.05,1936.179 L1327.34,1937.796 L1314.518,1938.828 L1300.317,1938.965 L1288.41,1938.83 L1285.243,1938.828 L1277.561,1938.825 L1269.302,1939.286 L1258.104,1940.856 L1252.607,1940.562 L1242.084,1938.906 L1228.574,1938.439 L1205.648,1937.944 L1189.809,1937.556 L1181.908,1936.537 L1179.155,1936.181 L1165.323,1933.819 L1153.273,1930.997 L1145.978,1928.234 L1144.287,1927.631 L1132.959,1922.759 L1118.278,1916.058 L1109.9,1910.824 L1107.714,1909.458 L1091.678,1898.273 L1077.978,1888.22 L1059.9,1875.05 L1061.625,1876.321 L1041.816,1861.81 L1034.791,1857.147 L1023.228,1848.163 L1008.593,1836.806 L997.774,1828.937 L990.247,1823.261 L982.078,1817.437 L976.16,1813.199 L970.517,1809.622 L965.321,1806.5 L961.163,1803.931 L956.611,1801.339 L949.267,1797.67 L943.851,1795.032 L935.967,1792.231 L928.037,1790.015 L921.145,1787.996 L916.427,1786.777 L910.672,1785.438 L843.364,1771.088 L794.627,1760.276 L751.738,1751.188 L740.663,1749.207 L729.366,1747.581 L726.924,1747.246 L724.68,1747.037 L722.854,1746.856 L721.449,1746.827 L719.435,1746.803 L712.061,1746.73 L706.931,1746.808 L704.416,1746.86 L701.629,1747.091 L698.127,1747.32 L695.859,1747.524 L690.583,1748.137 L689.349,1748.316 L683.333,1749.183 L674.95,1750.559 L670.684,1751.298 L661.467,1753.202 L624.55,1759.89 L615.079,1761.296 L607.656,1762.039 L600.873,1762.35 L594.47,1762.452 L590.3,1762.146 L582.035,1761.127 L576.607,1760.44 L573.375,1760.057 L569.354,1759.473 L565.233,1758.835 L561.532,1758.199 L557.88,1757.513 L554.006,1756.547 L548.012,1754.969 L544.262,1754.105 L534.515,1751.866 L529.432,1750.494 L526.2,1749.401 L520.229,1746.885 L500.292,1739.819 L496.417,1738.802 L493.284,1737.99 L490.718,1737.277 L487.732,1736.16 L485.413,1735.322 L484.839,1735.087 L483.291,1734.457 L481.786,1733.898 L480.157,1733.288 L478.281,1732.678 L469.483,1729.847 L462.733,1728.155 L454.357,1725.794 L443.592,1722.759 L441.399,1722.112 L436.721,1720.432 L432.019,1718.524 L421.776,1714.401 L414.588,1711.514 L408.752,1709.244 L396.759,1704.804 L387.895,1701.451 L378.367,1697.433 L371.4,1694.649 L362.168,1690.659 L358.795,1689.167 L355.865,1687.955 L349.738,1684.77 L345.53,1682.46 L343.295,1680.618 L340.765,1678.368 L336.246,1674.304 L329.563,1668.625 L326.763,1666.221 L323.914,1663.589 L321.478,1661.129 L319.163,1658.937 L317.194,1657.076 L311.808,1651.842 L307.344,1647.44 L304.439,1644.561 L300.326,1640.355 L298.628,1638.622 L296.633,1636.66 L288.777,1629.192 L283.773,1624.333 L275.259,1616.065 L273.283,1613.943 L267.739,1608.918 L261.337,1603.122 L257.241,1599.404 L254.737,1597.325 L252.186,1595.043 L255.966,1590.538 L245.689,1580.772 L244.169,1579.31 L242.943,1578.233 L240.094,1576.025 L237.589,1573.998 L233.515,1570.711 L231.083,1568.939 L228.871,1567.448 L226.39,1565.777 L224.646,1564.671 L221.991,1562.999 L217.515,1560.602 L215.351,1559.493 L212.226,1558.149 L209.715,1557.165 L208.139,1556.568 L205.355,1555.698 L204.937,1555.604 L200.701,1554.381 L193.287,1552.294 L188.31,1550.989 L182.002,1549.445 L173.082,1547.298 L173.776,1544.566 L174.471,1541.887 L176.902,1532.129 L177.225,1530.884 L177.596,1530.147 L178.239,1529.334 L179.005,1528.599 L179.943,1527.991 L181.227,1527.358 L182.856,1526.699 L183.918,1526.269 L186.165,1525.511 L188.016,1524.956 L188.856,1524.498 L190.189,1523.764 L191.103,1523.13 L192.61,1522.04 L194.19,1520.873 L196.439,1518.971 L198.267,1517.322 L201.528,1514.252 L204.913,1511.818 L206.452,1505.211 L206.752,1502.77 L207.152,1498.297 L207.378,1495.907 L207.528,1494.56 L207.529,1493.467 L207.359,1491.84 L206.968,1488.66 L206.208,1485.455 L205.643,1483.65 L204.757,1481.41 L203.847,1479.35 L200.353,1471.894 L197.934,1472.245 L196.157,1472.547 L194.182,1472.873 L192.331,1473.048 L189.018,1473.339 L182.601,1473.261 L172.113,1472.872 L171.446,1472.968 L170.384,1473.137 L169.296,1473.484 L168.256,1473.831 L160.78,1476.945 L159.988,1477.219 L156.751,1477.828 L154.23,1478.214 L152.773,1478.38 L150.45,1478.667 L147.586,1478.846 L144.746,1479.078 L142.028,1479.463 L138.667,1479.994 L136.171,1480.508 L133.822,1481.098 L132.462,1481.52 L131.1,1482.093 L129.838,1482.617 L128.228,1483.366 L126.937,1480.891 L121.826,1470.384 L120.49,1467.275 L118.404,1461.922 L117.29,1458.712 L116.71,1457.006 L115.498,1453.694 L113.631,1448.929 L113.172,1447.451 L112.882,1446.484 L112.595,1445.085 L112.505,1443.915 L112.513,1442.695 L112.371,1441.779 L112.106,1440.813 L111.224,1438.27 L110.727,1436.838 L110.267,1435.437 L110.151,1434.394 L110.109,1433.2 L110.268,1431.703 L110.577,1429.876 L116.456,1429.313 L116.043,1428.294 L115.752,1427.555 L115.385,1426.993 L115.093,1426.533 L111.355,1421.614 L109.875,1419.68 L105.804,1414.338 L102.919,1409.812 L102.154,1408.921 L101.34,1408.208 L100.303,1407.471 L99.118,1406.732 L98.008,1405.967 L97.219,1405.357 L95.862,1404.008 L94.899,1402.839 L93.148,1401.083 L92.111,1400.447 L91.025,1400.089 L89.743,1399.783 L88.582,1399.681 L86.632,1399.628 L83.769,1399.675 L81.844,1399.851 L80.436,1400.104 L78.264,1400.788 L76.116,1401.473 L74.512,1401.8 L72.908,1401.85 L70.736,1401.746 L69.674,1401.643 L67.749,1401.26 L64.96,1400.165 L61.604,1398.535 L57.927,1396.32 L53.954,1393.927 L52.226,1393.112 L50.819,1392.755 L50.079,1392.856 L46.549,1393.793 L45.561,1393.945 L41.316,1393.712 L40.576,1393.711 L40.106,1393.838 L35.045,1396.604 L30.774,1398.557 L27.467,1399.825 L25.468,1400.331 L23.394,1400.431 L21.494,1400.252 L17.372,1399.078 L12.485,1398.675 L9.277,1398.382 L8.169,1397.64 L6.667,1396.108 L5.536,1395.163 L4.921,1394.627 L4.156,1394.038 L3.22,1393.45 L2.136,1392.987 L0.0,1392.156 L0.643,1389.296 L1.296,1386.249 L2.02,1383.659 L2.397,1381.679 L2.649,1380.485 L2.749,1380.029 L3.121,1379.624 L3.962,1379.043 L4.853,1378.335 L5.671,1377.627 L6.439,1376.639 L6.936,1375.878 L7.458,1374.966 L7.955,1374.079 L8.23,1373.062 L8.456,1371.844 L8.559,1370.726 L8.803,1368.339 L13.07,1365.586 L16.558,1363.363 L19.848,1361.112 L22.594,1359.24 L24.324,1357.942 L26.033,1356.66 L28.482,1354.773 L29.151,1354.256 L31.479,1351.851 L34.03,1349.546 L36.258,1347.14 L37.967,1345.418 L39.254,1344.456 L40.615,1343.496 L42.001,1342.51 L43.313,1341.319 L44.427,1340.231 L45.444,1338.734 L46.314,1336.654 L47.135,1334.597 L48.103,1332.745 L49.164,1330.824 L49.419,1330.361 L50.511,1328.713 L51.427,1327.674 L52.344,1326.813 L53.333,1326.054 L54.447,1325.195 L55.412,1324.487 L56.105,1324.056 L56.871,1323.754 L57.736,1323.554 L58.773,1323.482 L60.131,1323.462 L61.341,1323.364 L62.774,1322.987 L65.444,1321.956 L68.583,1320.975 L68.969,1320.862 L71.993,1319.971 L73.262,1319.473 L76.1,1319.043 L78.395,1318.74 L80.715,1318.489 L83.084,1318.313 L85.355,1317.959 L87.092,1317.603 L87.576,1317.505 L89.896,1317.227 L91.451,1317.153 L93.006,1316.875 L94.906,1316.699 L96.782,1316.522 L98.189,1316.422 L99.67,1316.373 L100.904,1316.374 L102.532,1316.529 L104.383,1316.937 L106.506,1317.346 L109.146,1317.858 L111.071,1318.393 L115.464,1318.957 L116.115,1319.366 L116.683,1319.849 L117.62,1320.816 L119.002,1322.241 L120.309,1323.64 L121.717,1324.862 L122.827,1325.65 L123.789,1326.288 L125.122,1326.645 L127.986,1327.409 L129.936,1328.023 L131.91,1328.457 L133.811,1328.941 L135.662,1329.402 L137.562,1329.861 L139.142,1330.294 L140.229,1330.55 L141.364,1330.678 L142.623,1330.604 L144.08,1330.478 L145.536,1330.302 L147.363,1330.126 L149.567,1329.866 L149.94,1329.812 L150.819,1329.571 L151.92,1329.295 L152.08,1327.463 L157.487,1325.512 L160.252,1324.676 L161.289,1324.449 L162.153,1324.272 L162.844,1324.196 L163.388,1324.172 L164.276,1324.274 L164.991,1324.512 L165.608,1324.529 L166.818,1324.759 L167.411,1324.887 L168.2,1324.812 L168.818,1324.66 L169.682,1324.331 L170.546,1323.951 L171.435,1323.519 L172.077,1323.368 L172.842,1323.292 L173.633,1323.345 L174.695,1323.371 L175.484,1323.423 L176.496,1323.424 L177.41,1323.197 L178.002,1323.121 L178.694,1323.199 L179.261,1323.504 L179.73,1323.733 L180.569,1323.76 L181.187,1323.659 L182.0,1323.329 L182.841,1323.203 L184.148,1323.256 L185.704,1323.258 L186.618,1323.259 L188.049,1323.183 L189.185,1323.083 L190.049,1322.932 L190.549,1322.838 L191.21,1322.146 L191.581,1321.74 L191.975,1321.46 L192.42,1321.308 L192.765,1321.232 L193.209,1321.232 L193.753,1321.336 L195.111,1321.82 L195.456,1322.125 L195.703,1322.431 L196.368,1323.448 L196.714,1324.44 L205.131,1326.0 L205.503,1322.951 L205.849,1322.316 L210.836,1317.981 L213.772,1314.859 L215.465,1312.829 L215.994,1312.194 L212.564,1313.664 L211.132,1314.196 L208.097,1314.979 L205.629,1315.409 L203.507,1315.686 L201.557,1315.836 L198.719,1316.112 L196.498,1316.338 L193.709,1316.717 L191.513,1317.071 L189.317,1317.398 L186.528,1317.725 L180.605,1318.456 L178.335,1318.784 L170.81,1298.223 L169.798,1295.53 L169.551,1294.64 L169.526,1294.132 L169.576,1293.674 L169.65,1293.014 L169.921,1291.974 L170.218,1291.16 L170.934,1288.24 L171.378,1285.978 L171.749,1283.388 L172.513,1277.875 L173.18,1272.999 L173.83,1267.997 L174.045,1266.344 L174.193,1265.329 L175.5,1262.077 L177.007,1258.446 L178.611,1254.815 L179.451,1253.139 L180.734,1251.133 L181.697,1249.305 L183.079,1246.588 L184.659,1243.719 L186.411,1240.85 L188.732,1237.042 L189.695,1235.569 L191.916,1233.691 L193.545,1232.323 L196.408,1230.217 L200.129,1227.688 L203.146,1225.741 L206.806,1223.447 L207.81,1221.279 L217.773,1221.072 L217.618,1224.737 L205.801,1228.034 L217.096,1229.004 L219.333,1230.061 L225.053,1233.358 L229.917,1233.627 L233.571,1233.562 L238.188,1233.45 L242.808,1232.297 L246.584,1233.045 L249.422,1233.689 L254.169,1241.124 L255.748,1241.714 L258.486,1242.46 L261.177,1242.799 L261.499,1242.292 L262.169,1241.1 L262.195,1240.566 L262.32,1239.83 L262.742,1239.043 L266.199,1238.928 L267.901,1239.061 L269.359,1238.989 L270.766,1238.714 L271.879,1238.184 L272.918,1237.35 L273.61,1236.665 L274.389,1232.996 L275.309,1228.663 L275.735,1226.662 L274.758,1221.779 L275.512,1216.166 L275.739,1214.414 L271.04,1207.309 L268.511,1191.471 L268.464,1190.759 L268.44,1190.023 L268.543,1188.853 L268.843,1187.026 L269.22,1184.308 L270.048,1178.72 L270.175,1177.476 L271.868,1171.739 L276.271,1158.489 L279.058,1150.037 L279.283,1149.225 L279.334,1148.31 L279.384,1147.701 L279.411,1147.091 L279.338,1146.481 L279.223,1142.873 L279.036,1138.756 L278.914,1138.12 L278.595,1137.331 L275.014,1127.13 L273.824,1124.083 L269.754,1113.454 L265.56,1102.674 L275.461,1102.204 L284.818,1101.659 L292.966,1100.527 L296.246,1099.91 L297.976,1099.612 L299.433,1099.287 L300.126,1098.984 L309.406,1091.519 L314.002,1090.137 L315.189,1089.759 L317.943,1088.32 L318.629,1088.288 L318.355,1087.89 L317.248,1085.65 L316.316,1083.461 L315.849,1082.469 L314.991,1080.103 L314.845,1078.909 L314.825,1077.257 L315.025,1076.495 L315.224,1075.81 L315.522,1075.176 L316.414,1073.858 L317.604,1071.675 L318.622,1069.9 L319.837,1068.177 L321.4,1065.234 L321.73,1064.617 L322.592,1063.003 L323.808,1060.391 L324.474,1057.981 L325.116,1057.041 L326.673,1055.924 L327.636,1055.492 L329.044,1055.111 L330.847,1054.654 L331.613,1054.452 L332.427,1053.918 L333.169,1053.054 L333.884,1052.216 L333.859,1051.328 L333.573,1050.213 L332.451,1045.84 L332.351,1044.494 L332.5,1043.884 L334.87,1039.108 L336.969,1034.333 L337.076,1033.867 L337.167,1033.469 L337.117,1032.962 L336.87,1032.555 L336.104,1031.564 L334.646,1029.607 L331.869,1025.769 L330.201,1022.838 L329.047,1020.901 L328.334,1020.034 L327.101,1019.292 L324.316,1017.678 L321.727,1016.219 L321.606,1015.684 L321.684,1014.871 L321.839,1013.068 L321.962,1012.229 L322.017,1011.849 L322.08,1011.645 L322.268,1011.038 L322.74,1010.201 L323.736,1008.706 L325.974,1005.109 L327.59,1002.576 L329.977,999.208 L331.667,996.675 L332.215,995.686 L332.516,994.595 L332.77,992.995 L333.146,991.295 L333.374,990.101 L333.675,989.112 L334.099,988.276 L335.067,987.086 L336.457,985.517 L337.649,984.201 L342.161,980.462 L344.394,978.338 L344.768,977.655 L344.847,976.46 L345.128,974.404 L345.157,973.032 L345.163,971.633 L345.143,970.262 L345.0,969.144 L344.708,968.202 L344.119,967.158 L343.21,965.781 L340.458,962.135 L337.061,952.769 L337.388,951.271 L337.613,950.637 L338.136,949.852 L339.476,948.639 L340.442,947.78 L341.259,947.504 L345.757,947.602 L346.302,947.248 L350.793,942.771 L351.761,941.785 L352.258,941.0 L353.675,939.225 L348.378,935.239 L343.103,931.785 L339.998,929.788 L312.863,913.015 L266.433,885.775 L265.396,885.14 L265.026,884.378 L263.866,882.749 L262.384,881.072 L261.347,880.131 L261.349,880.001 L261.515,869.481 L261.658,863.38 L262.028,855.806 L268.004,848.663 L268.281,847.036 L268.711,844.013 L269.584,841.804 L270.28,840.053 L271.101,838.608 L272.389,837.062 L273.506,835.465 L274.451,833.689 L275.57,831.533 L275.623,830.491 L275.903,827.925 L276.431,824.749 L277.035,821.6 L278.114,816.442 L278.666,813.597 L279.669,808.898 L281.417,803.415 L281.891,802.019 L282.363,801.309 L284.866,798.802 L288.311,795.562 L289.451,794.424 L290.689,793.489 L291.729,792.629 L293.736,791.264 L296.36,789.598 L294.566,794.115 L293.72,796.272 L293.34,798.762 L292.937,801.302 L292.456,804.885 L295.099,805.074 L295.201,804.185 L295.906,799.968 L296.309,797.732 L296.411,796.842 L297.057,795.498 L298.224,793.927 L299.713,791.772 L300.459,790.123 L301.033,788.599 L301.407,787.458 L301.681,786.696 L302.575,785.582 L303.964,783.731 L304.436,782.971 L304.932,782.133 L306.544,780.642 L306.696,779.727 L306.847,778.634 L307.022,777.999 L307.965,776.757 L308.883,775.464 L310.843,773.311 L312.147,775.097 L312.687,775.811 L313.327,776.348 L314.142,777.012 L315.325,777.525 L317.053,777.939 L317.707,774.561 L320.675,774.699 L325.172,774.834 L325.148,774.453 L325.349,772.039 L325.649,770.337 L327.935,761.805 L328.013,758.858 L327.644,757.967 L327.301,757.078 L326.956,755.756 L326.859,755.146 L326.959,754.587 L327.23,754.283 L327.627,753.902 L327.924,753.573 L328.41,752.736 L328.502,752.378 L329.694,747.277 L330.266,744.713 L331.111,740.142 L331.184,739.194 L331.287,737.83 L331.538,734.884 L331.64,733.156 L331.791,730.388 L331.862,728.592 L331.919,727.136 L331.872,725.282 L331.827,720.785 L331.86,720.071 L331.879,719.694 L332.128,717.764 L332.327,716.214 L332.393,715.878 L332.577,714.944 L332.91,713.752 L333.566,711.008 L333.926,709.889 L334.034,709.415 L334.165,708.84 L335.587,704.163 L337.363,700.439 L336.766,700.063 L339.367,694.316 L338.492,689.883 L337.928,687.143 L337.563,684.833 L337.333,683.794 L337.177,682.906 L337.005,681.305 L336.38,675.925 L336.238,673.485 L336.225,671.885 L336.312,670.283 L336.543,668.3 L336.851,666.543 L337.209,664.838 L337.617,663.233 L338.171,661.348 L341.334,651.462 L342.562,647.673 L344.787,640.813 L348.681,630.305 L345.206,631.102 L341.501,631.64 L337.027,632.007 L335.846,632.079 L334.606,632.154 L332.653,632.4 L330.11,632.877 L327.642,633.406 L325.57,634.084 L325.533,633.654 L325.379,631.85 L325.194,630.351 L324.857,628.398 L324.702,627.561 L324.448,626.597 L320.56,610.035 L311.156,612.324 L308.827,612.904 L307.604,610.597 L306.879,608.874 L306.08,607.253 L304.782,604.617 L303.211,601.654 L301.014,597.323 L299.819,595.068 L298.893,593.32 L296.084,595.697 L292.933,598.583 L290.112,592.959 L289.867,593.468 L289.672,593.926 L288.094,594.95 L287.072,593.152 L284.162,594.818 L281.269,589.677 L280.505,590.189 L279.684,589.279 L279.438,588.913 L279.31,588.722 L278.913,588.267 L278.491,587.965 L277.174,586.499 L276.775,586.018 L276.177,585.081 L273.934,580.818 L271.984,576.848 L293.405,567.443 L294.376,569.012 L294.824,569.594 L295.742,570.224 L297.246,569.303 L295.796,565.78 L294.696,563.474 L294.047,562.157 L293.375,561.271 L293.001,560.842 L295.221,559.611 L291.972,552.287 L295.722,550.735 L296.455,550.489 L299.355,549.517 L300.04,549.288 L299.55,547.388 L298.713,545.251 L297.875,543.895 L296.478,542.497 L294.887,541.427 L298.385,539.083 L298.623,538.898 L298.799,538.761 L295.376,534.457 L309.011,530.072 L320.309,526.999 L320.474,520.763 L320.261,516.214 L320.689,515.428 L320.996,514.862 L321.089,513.9 L321.29,511.823 L321.747,507.106 L323.037,498.281 L323.254,496.84 L323.371,495.738 L323.319,490.477 L324.179,484.424 L324.27,483.879 L325.667,475.695 L326.446,470.566 L333.862,472.034 L332.438,448.048 L333.996,448.205 L336.739,448.797 L339.731,449.366 L344.034,449.123 L343.096,428.492 L344.214,426.869 L343.62,416.706 L343.537,415.693 L343.476,414.952 L342.994,409.514 L342.512,404.609 L341.977,400.898 L341.465,398.102 L337.169,394.66 L338.583,393.064 L340.345,390.706 L342.381,387.892 L345.059,384.902 L353.096,376.034 L359.592,369.956 L364.005,366.081 L371.219,359.828 L374.094,357.597 L378.655,354.058 L382.868,350.997 L384.454,349.73 L385.628,348.908 L386.115,348.567 L389.311,346.544 L392.892,343.628 L395.873,347.674 L396.473,347.341 L397.454,346.708 L404.33,359.036 L417.855,358.333 L419.326,372.768 L430.873,402.706 L431.739,402.607 L432.481,402.761 L433.198,403.145 L433.667,403.603 L434.257,404.57 L434.527,405.715 L435.123,414.176 L446.429,413.22 L449.72,412.85 L451.468,415.802 L453.118,418.399 L456.173,423.235 L458.537,427.027 L476.339,420.046 L480.202,418.56 L492.803,414.398 L493.468,414.129 L498.399,412.444 L498.968,423.921 L499.248,425.912 L499.832,434.655 L500.562,446.634 L501.243,457.795 L501.548,462.794 L507.877,461.948 L512.403,461.188 L527.334,458.47 L530.512,460.743 L531.01,461.478 L536.041,463.055 L533.061,466.248 L533.409,467.0 L535.333,470.424 L538.452,475.978 L538.948,477.514 L554.965,474.355 L570.499,471.293 L572.058,471.1 L574.076,470.645 L595.865,465.008 L602.333,463.557 L605.49,462.061 L620.074,455.151 L624.06,453.33 L636.282,447.719 L640.892,445.495 L641.681,445.133 L642.372,444.823 L643.95,444.174 L647.084,443.055 L656.577,438.825 L659.444,438.098 L664.873,436.172 L668.969,434.767 L670.13,434.503 L672.082,434.181 L675.691,433.618 L680.434,432.613 L682.732,432.162 L683.94,431.644 L684.434,431.334 L685.001,431.229 L687.374,430.802 L691.329,430.262 L695.087,429.747 L698.967,429.106 L701.414,428.705 L711.868,426.917 L713.01,414.555 L712.374,405.691 L713.913,402.095 L715.485,398.421 L715.811,392.344 L715.782,390.381 L715.756,388.633 L704.188,393.506 L716.541,384.28 L716.238,382.405 L715.854,380.025 L711.07,345.766 L710.918,345.293 L712.159,342.171 L712.656,341.181 L713.921,338.388 L715.187,335.696 L716.973,331.991 L717.668,330.291 L718.413,329.021 L719.206,327.498 L719.974,326.609 L720.94,325.569 L721.782,324.859 L723.367,323.439 L724.928,322.196 L725.522,321.511 L725.708,313.434 L713.652,302.851 L715.81,298.611 L711.252,296.948 L710.072,296.688 L709.085,296.468 L707.724,296.29 L706.414,295.931 L704.906,295.573 L703.817,295.038 L703.002,294.504 L702.162,293.741 L701.075,292.443 L700.137,291.198 L699.199,289.57 L698.682,288.249 L697.746,285.631 L697.204,284.132 L696.217,282.099 L695.305,279.99 L694.442,277.956 L693.53,275.82 L692.692,273.738 L691.483,271.043 L690.423,269.086 L689.633,267.434 L688.744,265.731 L688.033,264.181 L687.191,262.731 L685.734,260.621 L679.562,250.231 L680.12,247.733 L681.525,242.967 L681.672,242.221 L693.695,252.631 L695.567,249.854 L696.948,248.526 L702.368,249.805 L707.86,250.422 L710.482,250.744 L713.449,251.262 L717.299,252.003 L721.557,252.448 L725.27,252.688 L728.019,252.517 L728.688,252.34 L729.534,251.401 L731.051,249.341 L731.645,249.242 L733.082,249.424 L737.042,249.817 L737.934,249.718 L738.574,249.201 L743.564,246.796 L747.602,240.261 L745.133,234.452 L743.848,232.549 L742.613,230.95 L741.451,229.528 L740.588,228.031 L738.761,224.202 L736.021,218.19 L734.317,214.207 L733.132,211.62 L731.404,207.891 L728.219,201.144 L727.183,199.038 L726.441,197.313 L725.849,195.537 L724.986,193.203 L724.344,191.834 L723.732,190.503 L722.151,186.578 L721.158,183.647 L720.613,180.289 L719.778,176.114 L719.502,173.064 L719.059,169.426 L718.496,165.178 L718.26,163.524 L718.117,162.812 L717.874,162.047 L716.714,161.81 L714.813,161.161 L714.049,160.748 L713.484,160.21 L712.747,159.34 L711.667,158.137 L710.192,156.831 L709.113,155.476 L708.008,154.274 L707.543,153.558 L704.908,151.734 L702.711,151.057 L699.324,150.625 L681.223,148.863 L681.125,145.203 L681.211,143.704 L681.417,142.46 L681.675,140.963 L681.635,139.641Z" fill="#ccc" fill-opacity="0.6" id="osm-relation-2793104" stroke="#999" stroke-width="2" /><circle cx="1011.099" cy="978.894" fill="#999" id="osm-node-1674026139" r="10" stroke="#666" stroke-width="2"><title>Node 1674026139 from OpenStreetMap</title></circle></g></svg>